<mxfile host="app.diagrams.net" modified="2021-11-11T10:54:12.928Z" agent="5.0 (Windows)" etag="1mr_uCdqD6muVaAGNNVR" version="15.7.3" type="github">
  <diagram id="R2lEEEUBdFMjLlhIrx00" name="Page-1">
    <mxGraphModel dx="1424" dy="792" grid="1" gridSize="10" guides="1" tooltips="1" connect="1" arrows="1" fold="1" page="1" pageScale="1" pageWidth="850" pageHeight="1100" math="0" shadow="0" extFonts="Permanent Marker^https://fonts.googleapis.com/css?family=Permanent+Marker">
      <root>
        <mxCell id="0" />
        <mxCell id="1" parent="0" />
        <mxCell id="XqGiBruaNYAaCKLMRiXZ-7" style="edgeStyle=orthogonalEdgeStyle;curved=1;rounded=0;orthogonalLoop=1;jettySize=auto;html=1;fontSize=14;editable=0;" edge="1" parent="1" source="XqGiBruaNYAaCKLMRiXZ-5" target="XqGiBruaNYAaCKLMRiXZ-6">
          <mxGeometry relative="1" as="geometry" />
        </mxCell>
        <mxCell id="XqGiBruaNYAaCKLMRiXZ-10" value="happens" style="edgeLabel;html=1;align=center;verticalAlign=middle;resizable=0;points=[];fontSize=14;" vertex="1" connectable="0" parent="XqGiBruaNYAaCKLMRiXZ-7">
          <mxGeometry x="-0.1571" y="2" relative="1" as="geometry">
            <mxPoint as="offset" />
          </mxGeometry>
        </mxCell>
        <mxCell id="XqGiBruaNYAaCKLMRiXZ-13" style="edgeStyle=orthogonalEdgeStyle;rounded=0;orthogonalLoop=1;jettySize=auto;html=1;entryX=0;entryY=0.5;entryDx=0;entryDy=0;fontSize=14;" edge="1" parent="1" source="XqGiBruaNYAaCKLMRiXZ-5" target="XqGiBruaNYAaCKLMRiXZ-11">
          <mxGeometry relative="1" as="geometry">
            <Array as="points">
              <mxPoint x="130" y="130" />
            </Array>
          </mxGeometry>
        </mxCell>
        <mxCell id="XqGiBruaNYAaCKLMRiXZ-14" value="during" style="edgeLabel;html=1;align=center;verticalAlign=middle;resizable=0;points=[];fontSize=14;" vertex="1" connectable="0" parent="XqGiBruaNYAaCKLMRiXZ-13">
          <mxGeometry x="0.0696" y="-2" relative="1" as="geometry">
            <mxPoint as="offset" />
          </mxGeometry>
        </mxCell>
        <mxCell id="XqGiBruaNYAaCKLMRiXZ-16" style="edgeStyle=orthogonalEdgeStyle;rounded=0;orthogonalLoop=1;jettySize=auto;html=1;entryX=0;entryY=0.5;entryDx=0;entryDy=0;fontSize=14;" edge="1" parent="1" source="XqGiBruaNYAaCKLMRiXZ-5" target="XqGiBruaNYAaCKLMRiXZ-15">
          <mxGeometry relative="1" as="geometry">
            <Array as="points">
              <mxPoint x="110" y="190" />
            </Array>
          </mxGeometry>
        </mxCell>
        <mxCell id="XqGiBruaNYAaCKLMRiXZ-17" value="reason" style="edgeLabel;html=1;align=center;verticalAlign=middle;resizable=0;points=[];fontSize=14;" vertex="1" connectable="0" parent="XqGiBruaNYAaCKLMRiXZ-16">
          <mxGeometry x="0.2" y="-3" relative="1" as="geometry">
            <mxPoint as="offset" />
          </mxGeometry>
        </mxCell>
        <mxCell id="XqGiBruaNYAaCKLMRiXZ-24" style="edgeStyle=orthogonalEdgeStyle;rounded=0;orthogonalLoop=1;jettySize=auto;html=1;entryX=0;entryY=0.5;entryDx=0;entryDy=0;fontSize=14;" edge="1" parent="1" source="XqGiBruaNYAaCKLMRiXZ-5" target="XqGiBruaNYAaCKLMRiXZ-23">
          <mxGeometry relative="1" as="geometry">
            <Array as="points">
              <mxPoint x="100" y="310" />
            </Array>
          </mxGeometry>
        </mxCell>
        <mxCell id="XqGiBruaNYAaCKLMRiXZ-25" value="participant" style="edgeLabel;html=1;align=center;verticalAlign=middle;resizable=0;points=[];fontSize=14;" vertex="1" connectable="0" parent="XqGiBruaNYAaCKLMRiXZ-24">
          <mxGeometry x="0.4136" y="-2" relative="1" as="geometry">
            <mxPoint as="offset" />
          </mxGeometry>
        </mxCell>
        <mxCell id="XqGiBruaNYAaCKLMRiXZ-5" value="Encounter" style="whiteSpace=wrap;html=1;align=center;fontSize=14;" vertex="1" parent="1">
          <mxGeometry x="80" y="50" width="100" height="40" as="geometry" />
        </mxCell>
        <mxCell id="XqGiBruaNYAaCKLMRiXZ-6" value="Place" style="whiteSpace=wrap;html=1;align=center;fontSize=14;" vertex="1" parent="1">
          <mxGeometry x="480" y="50" width="100" height="40" as="geometry" />
        </mxCell>
        <mxCell id="XqGiBruaNYAaCKLMRiXZ-11" value="Time" style="whiteSpace=wrap;html=1;align=center;fontSize=14;" vertex="1" parent="1">
          <mxGeometry x="480" y="110" width="100" height="40" as="geometry" />
        </mxCell>
        <mxCell id="XqGiBruaNYAaCKLMRiXZ-15" value="Purpose" style="whiteSpace=wrap;html=1;align=center;fontSize=14;" vertex="1" parent="1">
          <mxGeometry x="480" y="170" width="100" height="40" as="geometry" />
        </mxCell>
        <mxCell id="XqGiBruaNYAaCKLMRiXZ-21" value="Collaboration&#xa;Performance&#xa;Award" style="shape=partialRectangle;fillColor=none;align=left;verticalAlign=middle;strokeColor=none;spacingLeft=34;rotatable=0;points=[[0,0.5],[1,0.5]];portConstraint=eastwest;dropTarget=0;fontSize=14;" vertex="1" parent="1">
          <mxGeometry x="230" y="220" width="90" height="30" as="geometry" />
        </mxCell>
        <mxCell id="XqGiBruaNYAaCKLMRiXZ-22" value="" style="shape=partialRectangle;top=0;left=0;bottom=0;fillColor=none;stokeWidth=1;dashed=1;align=left;verticalAlign=middle;spacingLeft=4;spacingRight=4;overflow=hidden;rotatable=0;points=[];portConstraint=eastwest;part=1;fontSize=14;" vertex="1" connectable="0" parent="XqGiBruaNYAaCKLMRiXZ-21">
          <mxGeometry width="30" height="30" as="geometry" />
        </mxCell>
        <mxCell id="XqGiBruaNYAaCKLMRiXZ-35" style="edgeStyle=orthogonalEdgeStyle;rounded=0;orthogonalLoop=1;jettySize=auto;html=1;fontSize=14;" edge="1" parent="1" source="XqGiBruaNYAaCKLMRiXZ-23" target="XqGiBruaNYAaCKLMRiXZ-34">
          <mxGeometry relative="1" as="geometry" />
        </mxCell>
        <mxCell id="XqGiBruaNYAaCKLMRiXZ-36" value="has a" style="edgeLabel;html=1;align=center;verticalAlign=middle;resizable=0;points=[];fontSize=14;" vertex="1" connectable="0" parent="XqGiBruaNYAaCKLMRiXZ-35">
          <mxGeometry x="-0.32" y="1" relative="1" as="geometry">
            <mxPoint as="offset" />
          </mxGeometry>
        </mxCell>
        <mxCell id="XqGiBruaNYAaCKLMRiXZ-23" value="Person" style="whiteSpace=wrap;html=1;align=center;fontSize=14;" vertex="1" parent="1">
          <mxGeometry x="320" y="290" width="100" height="40" as="geometry" />
        </mxCell>
        <mxCell id="XqGiBruaNYAaCKLMRiXZ-30" value="Central participants&#xa;Other participants" style="shape=partialRectangle;fillColor=none;align=left;verticalAlign=middle;strokeColor=none;spacingLeft=34;rotatable=0;points=[[0,0.5],[1,0.5]];portConstraint=eastwest;dropTarget=0;fontSize=14;" vertex="1" parent="1">
          <mxGeometry x="130" y="370" width="90" height="30" as="geometry" />
        </mxCell>
        <mxCell id="XqGiBruaNYAaCKLMRiXZ-31" value="" style="shape=partialRectangle;top=0;left=0;bottom=0;fillColor=none;stokeWidth=1;dashed=1;align=left;verticalAlign=middle;spacingLeft=4;spacingRight=4;overflow=hidden;rotatable=0;points=[];portConstraint=eastwest;part=1;fontSize=14;" vertex="1" connectable="0" parent="XqGiBruaNYAaCKLMRiXZ-30">
          <mxGeometry width="30" height="30" as="geometry" />
        </mxCell>
        <mxCell id="XqGiBruaNYAaCKLMRiXZ-34" value="Biography" style="whiteSpace=wrap;html=1;align=center;fontSize=14;" vertex="1" parent="1">
          <mxGeometry x="550" y="270" width="100" height="40" as="geometry" />
        </mxCell>
        <mxCell id="XqGiBruaNYAaCKLMRiXZ-37" value="City&#xa;Country&#xa;Venue&#xa;" style="shape=partialRectangle;fillColor=none;align=left;verticalAlign=middle;strokeColor=none;spacingLeft=34;rotatable=0;points=[[0,0.5],[1,0.5]];portConstraint=eastwest;dropTarget=0;fontSize=14;" vertex="1" parent="1">
          <mxGeometry x="580" y="55" width="90" height="30" as="geometry" />
        </mxCell>
        <mxCell id="XqGiBruaNYAaCKLMRiXZ-38" value="" style="shape=partialRectangle;top=0;left=0;bottom=0;fillColor=none;stokeWidth=1;dashed=1;align=left;verticalAlign=middle;spacingLeft=4;spacingRight=4;overflow=hidden;rotatable=0;points=[];portConstraint=eastwest;part=1;fontSize=14;" vertex="1" connectable="0" parent="XqGiBruaNYAaCKLMRiXZ-37">
          <mxGeometry width="30" height="30" as="geometry" />
        </mxCell>
        <mxCell id="XqGiBruaNYAaCKLMRiXZ-39" value="Date&#xa;Period&#xa;Relative expression&#xa;" style="shape=partialRectangle;fillColor=none;align=left;verticalAlign=middle;strokeColor=none;spacingLeft=34;rotatable=0;points=[[0,0.5],[1,0.5]];portConstraint=eastwest;dropTarget=0;fontSize=14;" vertex="1" parent="1">
          <mxGeometry x="570" y="120" width="90" height="30" as="geometry" />
        </mxCell>
        <mxCell id="XqGiBruaNYAaCKLMRiXZ-40" value="" style="shape=partialRectangle;top=0;left=0;bottom=0;fillColor=none;stokeWidth=1;dashed=1;align=left;verticalAlign=middle;spacingLeft=4;spacingRight=4;overflow=hidden;rotatable=0;points=[];portConstraint=eastwest;part=1;fontSize=14;" vertex="1" connectable="0" parent="XqGiBruaNYAaCKLMRiXZ-39">
          <mxGeometry width="30" height="30" as="geometry" />
        </mxCell>
      </root>
    </mxGraphModel>
  </diagram>
</mxfile>
